# xmcd
#
# Track frame offsets:
#	150
#	14920
#	34987
#	49900
#	63250
#	78369
#	98110
#	112781
#	131463
#	144208
#	144901
#	145578
#	146329
#	147322
#	148123
#	148840
#	149557
#
# Disc length: 2001 seconds
#
# Revision: 1
# Processed by: cddbd v1.5.2PL0 Copyright (c) Steve Scherf et al.
# Submitted via: audiograbber 1.83.01
#
DISCID=0407cf11
DTITLE=Various Artist - CDX Volume 605 (September 29, 2014)
DYEAR=2014
DGENRE=Country
TTITLE0=Garth Brooks - People Loving People [Single Edit]
TTITLE1=Eric Paslay - She Don't Love You 
TTITLE2=Jon Pardi - When I've Been Drinkin' 
TTITLE3=Jo Dee Messina - He's Messed Up
TTITLE4=Erica Nicole - It's Comin' Down
TTITLE5=Chris Chitsey - Lonely In Tucson
TTITLE6=Simon Andersson - Mia [US Version]
TTITLE7=Taria - Parading In Your Rain
TTITLE8=Livewire - Interview - The Night The Bar Fight Broke Out
TTITLE9=Livewire - Liner - Hometown Country
TTITLE10=Livewire - Liner - Kickin' Country
TTITLE11=Livewire - Liner - The Country Music You Love
TTITLE12=Livewire - Liner - Our New Single
TTITLE13=Livewire - Liner - Super Country
TTITLE14=Livewire - Liner - Best In Country Music
TTITLE15=Livewire - Liner - Today's Best Country
TTITLE16=Livewire - Liner - Today's Hot Country Music
EXTD=
EXTT0=
EXTT1=
EXTT2=
EXTT3=
EXTT4=
EXTT5=
EXTT6=
EXTT7=
EXTT8=
EXTT9=
EXTT10=
EXTT11=
EXTT12=
EXTT13=
EXTT14=
EXTT15=
EXTT16=
PLAYORDER=
